<svg xmlns="http://www.w3.org/2000/svg" viewBox="0 -0.5 16 28" shape-rendering="crispEdges">
<metadata>Made with Pixels to Svg https://codepen.io/shshaw/pen/XbxvNj</metadata>
<path stroke="#222222" d="M1 8h7M0 9h1M8 9h1M1 10h3M9 10h1M4 11h1M9 11h1M5 12h1M8 12h1M3 13h10M3 14h1M12 14h1M3 15h1M12 15h3M3 16h1M14 16h1M3 17h1M14 17h1M3 18h1M14 18h1M3 19h1M14 19h1M3 20h1M14 20h1M3 21h1M12 21h3M3 22h1M12 22h1M3 23h1M12 23h1M3 24h1M12 24h1M3 25h1M12 25h1M3 26h1M6 26h4M12 26h1M3 27h3M9 27h3" />
<path stroke="#da4e38" d="M1 9h3M4 10h2M5 11h2M6 12h2" />
<path stroke="#ee8e2e" d="M4 9h4M6 10h3M7 11h2" />
<path stroke="#72d6ce" d="M4 14h6M4 15h2M4 16h2M7 16h5M4 17h2M7 17h1M9 17h1M11 17h1M4 18h2M7 18h1M9 18h1M11 18h1M4 19h2M7 19h1M9 19h1M11 19h1M4 20h2M7 20h5M4 21h2M4 22h7M11 23h1M4 24h7M4 25h7" />
<path stroke="#fdf7ed" d="M10 14h2M12 16h2M13 17h1M13 18h1M13 19h1M12 20h2M11 22h1M11 24h1M11 25h1" />
<path stroke="#417089" d="M6 15h6M6 16h1M6 17h1M8 17h1M10 17h1M12 17h1M6 18h1M8 18h1M10 18h1M12 18h1M6 19h1M8 19h1M10 19h1M12 19h1M6 20h1M6 21h6M4 23h7M4 26h2M10 26h2" />
</svg>